<mxfile host="app.diagrams.net" agent="Mozilla/5.0 (Windows NT 10.0; Win64; x64) AppleWebKit/537.36 (KHTML, like Gecko) Chrome/131.0.0.0 Safari/537.36" version="24.8.9">
  <diagram name="Страница — 1" id="H3fopM0qlbI0Fo-PStNV">
    <mxGraphModel dx="1050" dy="653" grid="1" gridSize="10" guides="1" tooltips="1" connect="1" arrows="1" fold="1" page="1" pageScale="1" pageWidth="827" pageHeight="1169" math="0" shadow="0">
      <root>
        <mxCell id="0" />
        <mxCell id="1" parent="0" />
        <mxCell id="tCJuM1a8_pd4Xw4a-ybW-28" style="edgeStyle=orthogonalEdgeStyle;rounded=0;orthogonalLoop=1;jettySize=auto;html=1;entryX=0.5;entryY=0;entryDx=0;entryDy=0;" edge="1" parent="1" source="tCJuM1a8_pd4Xw4a-ybW-1" target="tCJuM1a8_pd4Xw4a-ybW-24">
          <mxGeometry relative="1" as="geometry" />
        </mxCell>
        <mxCell id="tCJuM1a8_pd4Xw4a-ybW-1" value="Начало" style="ellipse;whiteSpace=wrap;html=1;" vertex="1" parent="1">
          <mxGeometry x="230" width="120" height="20" as="geometry" />
        </mxCell>
        <mxCell id="tCJuM1a8_pd4Xw4a-ybW-2" value="Конец" style="ellipse;whiteSpace=wrap;html=1;" vertex="1" parent="1">
          <mxGeometry x="230" y="440" width="120" height="20" as="geometry" />
        </mxCell>
        <mxCell id="tCJuM1a8_pd4Xw4a-ybW-11" style="edgeStyle=orthogonalEdgeStyle;rounded=0;orthogonalLoop=1;jettySize=auto;html=1;" edge="1" parent="1" source="tCJuM1a8_pd4Xw4a-ybW-3" target="tCJuM1a8_pd4Xw4a-ybW-5">
          <mxGeometry relative="1" as="geometry" />
        </mxCell>
        <mxCell id="tCJuM1a8_pd4Xw4a-ybW-3" value="Начало" style="ellipse;whiteSpace=wrap;html=1;" vertex="1" parent="1">
          <mxGeometry x="440" width="120" height="20" as="geometry" />
        </mxCell>
        <mxCell id="tCJuM1a8_pd4Xw4a-ybW-4" value="Конец" style="ellipse;whiteSpace=wrap;html=1;" vertex="1" parent="1">
          <mxGeometry x="440" y="330" width="120" height="20" as="geometry" />
        </mxCell>
        <mxCell id="tCJuM1a8_pd4Xw4a-ybW-12" style="edgeStyle=orthogonalEdgeStyle;rounded=0;orthogonalLoop=1;jettySize=auto;html=1;entryX=0.5;entryY=0;entryDx=0;entryDy=0;" edge="1" parent="1" source="tCJuM1a8_pd4Xw4a-ybW-5" target="tCJuM1a8_pd4Xw4a-ybW-6">
          <mxGeometry relative="1" as="geometry" />
        </mxCell>
        <mxCell id="tCJuM1a8_pd4Xw4a-ybW-5" value="int n, k" style="rounded=0;whiteSpace=wrap;html=1;" vertex="1" parent="1">
          <mxGeometry x="440" y="40" width="120" height="20" as="geometry" />
        </mxCell>
        <mxCell id="tCJuM1a8_pd4Xw4a-ybW-19" style="edgeStyle=orthogonalEdgeStyle;rounded=0;orthogonalLoop=1;jettySize=auto;html=1;entryX=0.5;entryY=0;entryDx=0;entryDy=0;" edge="1" parent="1" source="tCJuM1a8_pd4Xw4a-ybW-6" target="tCJuM1a8_pd4Xw4a-ybW-17">
          <mxGeometry relative="1" as="geometry" />
        </mxCell>
        <mxCell id="tCJuM1a8_pd4Xw4a-ybW-6" value="cout &amp;lt;&amp;lt; &quot;Введите число N:&quot;" style="shape=parallelogram;perimeter=parallelogramPerimeter;whiteSpace=wrap;html=1;fixedSize=1;" vertex="1" parent="1">
          <mxGeometry x="440" y="80" width="120" height="30" as="geometry" />
        </mxCell>
        <mxCell id="tCJuM1a8_pd4Xw4a-ybW-21" style="edgeStyle=orthogonalEdgeStyle;rounded=0;orthogonalLoop=1;jettySize=auto;html=1;entryX=0.5;entryY=0;entryDx=0;entryDy=0;" edge="1" parent="1" source="tCJuM1a8_pd4Xw4a-ybW-7" target="tCJuM1a8_pd4Xw4a-ybW-18">
          <mxGeometry relative="1" as="geometry" />
        </mxCell>
        <mxCell id="tCJuM1a8_pd4Xw4a-ybW-7" value="cout &amp;lt;&amp;lt; &quot;Введите число K:&quot;" style="shape=parallelogram;perimeter=parallelogramPerimeter;whiteSpace=wrap;html=1;fixedSize=1;" vertex="1" parent="1">
          <mxGeometry x="440" y="180" width="120" height="30" as="geometry" />
        </mxCell>
        <mxCell id="tCJuM1a8_pd4Xw4a-ybW-23" style="edgeStyle=orthogonalEdgeStyle;rounded=0;orthogonalLoop=1;jettySize=auto;html=1;entryX=0.5;entryY=0;entryDx=0;entryDy=0;" edge="1" parent="1" source="tCJuM1a8_pd4Xw4a-ybW-10" target="tCJuM1a8_pd4Xw4a-ybW-4">
          <mxGeometry relative="1" as="geometry" />
        </mxCell>
        <mxCell id="tCJuM1a8_pd4Xw4a-ybW-10" value="cout &amp;lt;&amp;lt; &quot;Ответ:&quot; &amp;lt;&amp;lt; &#39;\n&#39; &amp;lt;&amp;lt; sumsqr(n, k)" style="shape=parallelogram;perimeter=parallelogramPerimeter;whiteSpace=wrap;html=1;fixedSize=1;" vertex="1" parent="1">
          <mxGeometry x="430" y="280" width="140" height="30" as="geometry" />
        </mxCell>
        <mxCell id="tCJuM1a8_pd4Xw4a-ybW-20" style="edgeStyle=orthogonalEdgeStyle;rounded=0;orthogonalLoop=1;jettySize=auto;html=1;entryX=0.5;entryY=0;entryDx=0;entryDy=0;" edge="1" parent="1" source="tCJuM1a8_pd4Xw4a-ybW-17" target="tCJuM1a8_pd4Xw4a-ybW-7">
          <mxGeometry relative="1" as="geometry" />
        </mxCell>
        <mxCell id="tCJuM1a8_pd4Xw4a-ybW-17" value="cin &amp;gt;&amp;gt; n;" style="shape=parallelogram;perimeter=parallelogramPerimeter;whiteSpace=wrap;html=1;fixedSize=1;" vertex="1" parent="1">
          <mxGeometry x="440" y="130" width="120" height="30" as="geometry" />
        </mxCell>
        <mxCell id="tCJuM1a8_pd4Xw4a-ybW-22" style="edgeStyle=orthogonalEdgeStyle;rounded=0;orthogonalLoop=1;jettySize=auto;html=1;entryX=0.5;entryY=0;entryDx=0;entryDy=0;" edge="1" parent="1" source="tCJuM1a8_pd4Xw4a-ybW-18" target="tCJuM1a8_pd4Xw4a-ybW-10">
          <mxGeometry relative="1" as="geometry" />
        </mxCell>
        <mxCell id="tCJuM1a8_pd4Xw4a-ybW-18" value="cin &amp;gt;&amp;gt; k;" style="shape=parallelogram;perimeter=parallelogramPerimeter;whiteSpace=wrap;html=1;fixedSize=1;" vertex="1" parent="1">
          <mxGeometry x="440" y="230" width="120" height="30" as="geometry" />
        </mxCell>
        <mxCell id="tCJuM1a8_pd4Xw4a-ybW-29" style="edgeStyle=orthogonalEdgeStyle;rounded=0;orthogonalLoop=1;jettySize=auto;html=1;entryX=0.5;entryY=0;entryDx=0;entryDy=0;" edge="1" parent="1" source="tCJuM1a8_pd4Xw4a-ybW-24" target="tCJuM1a8_pd4Xw4a-ybW-25">
          <mxGeometry relative="1" as="geometry" />
        </mxCell>
        <mxCell id="tCJuM1a8_pd4Xw4a-ybW-24" value="int y" style="rounded=0;whiteSpace=wrap;html=1;" vertex="1" parent="1">
          <mxGeometry x="230" y="40" width="120" height="20" as="geometry" />
        </mxCell>
        <mxCell id="tCJuM1a8_pd4Xw4a-ybW-30" style="edgeStyle=orthogonalEdgeStyle;rounded=0;orthogonalLoop=1;jettySize=auto;html=1;entryX=0.5;entryY=0;entryDx=0;entryDy=0;" edge="1" parent="1" source="tCJuM1a8_pd4Xw4a-ybW-25" target="tCJuM1a8_pd4Xw4a-ybW-26">
          <mxGeometry relative="1" as="geometry" />
        </mxCell>
        <mxCell id="tCJuM1a8_pd4Xw4a-ybW-25" value="int z = 0" style="rounded=0;whiteSpace=wrap;html=1;" vertex="1" parent="1">
          <mxGeometry x="230" y="80" width="120" height="20" as="geometry" />
        </mxCell>
        <mxCell id="tCJuM1a8_pd4Xw4a-ybW-31" style="edgeStyle=orthogonalEdgeStyle;rounded=0;orthogonalLoop=1;jettySize=auto;html=1;entryX=0.5;entryY=0;entryDx=0;entryDy=0;" edge="1" parent="1" source="tCJuM1a8_pd4Xw4a-ybW-26" target="tCJuM1a8_pd4Xw4a-ybW-27">
          <mxGeometry relative="1" as="geometry" />
        </mxCell>
        <mxCell id="tCJuM1a8_pd4Xw4a-ybW-44" style="edgeStyle=orthogonalEdgeStyle;rounded=0;orthogonalLoop=1;jettySize=auto;html=1;entryX=0.5;entryY=0;entryDx=0;entryDy=0;" edge="1" parent="1" source="tCJuM1a8_pd4Xw4a-ybW-26" target="tCJuM1a8_pd4Xw4a-ybW-39">
          <mxGeometry relative="1" as="geometry">
            <mxPoint x="380" y="400" as="targetPoint" />
            <Array as="points">
              <mxPoint x="380" y="130" />
              <mxPoint x="380" y="390" />
              <mxPoint x="290" y="390" />
            </Array>
          </mxGeometry>
        </mxCell>
        <mxCell id="tCJuM1a8_pd4Xw4a-ybW-26" value="int i = 1; i &amp;lt;= b; i++" style="shape=hexagon;perimeter=hexagonPerimeter2;whiteSpace=wrap;html=1;fixedSize=1;" vertex="1" parent="1">
          <mxGeometry x="230" y="120" width="120" height="20" as="geometry" />
        </mxCell>
        <mxCell id="tCJuM1a8_pd4Xw4a-ybW-36" style="edgeStyle=orthogonalEdgeStyle;rounded=0;orthogonalLoop=1;jettySize=auto;html=1;entryX=0.5;entryY=0;entryDx=0;entryDy=0;" edge="1" parent="1" source="tCJuM1a8_pd4Xw4a-ybW-27" target="tCJuM1a8_pd4Xw4a-ybW-32">
          <mxGeometry relative="1" as="geometry" />
        </mxCell>
        <mxCell id="tCJuM1a8_pd4Xw4a-ybW-41" style="edgeStyle=orthogonalEdgeStyle;rounded=0;orthogonalLoop=1;jettySize=auto;html=1;entryX=0.5;entryY=0;entryDx=0;entryDy=0;" edge="1" parent="1" source="tCJuM1a8_pd4Xw4a-ybW-27" target="tCJuM1a8_pd4Xw4a-ybW-35">
          <mxGeometry relative="1" as="geometry">
            <mxPoint x="380" y="350" as="targetPoint" />
            <Array as="points">
              <mxPoint x="370" y="180" />
              <mxPoint x="370" y="330" />
              <mxPoint x="290" y="330" />
            </Array>
          </mxGeometry>
        </mxCell>
        <mxCell id="tCJuM1a8_pd4Xw4a-ybW-45" value="да" style="edgeLabel;html=1;align=center;verticalAlign=middle;resizable=0;points=[];" vertex="1" connectable="0" parent="tCJuM1a8_pd4Xw4a-ybW-41">
          <mxGeometry x="-0.9279" y="2" relative="1" as="geometry">
            <mxPoint x="-60" y="32" as="offset" />
          </mxGeometry>
        </mxCell>
        <mxCell id="tCJuM1a8_pd4Xw4a-ybW-46" value="нет" style="edgeLabel;html=1;align=center;verticalAlign=middle;resizable=0;points=[];" vertex="1" connectable="0" parent="tCJuM1a8_pd4Xw4a-ybW-41">
          <mxGeometry x="-0.9013" y="-1" relative="1" as="geometry">
            <mxPoint y="-11" as="offset" />
          </mxGeometry>
        </mxCell>
        <mxCell id="tCJuM1a8_pd4Xw4a-ybW-27" value="a != 0" style="rhombus;whiteSpace=wrap;html=1;" vertex="1" parent="1">
          <mxGeometry x="230" y="160" width="120" height="40" as="geometry" />
        </mxCell>
        <mxCell id="tCJuM1a8_pd4Xw4a-ybW-37" style="edgeStyle=orthogonalEdgeStyle;rounded=0;orthogonalLoop=1;jettySize=auto;html=1;entryX=0.5;entryY=0;entryDx=0;entryDy=0;" edge="1" parent="1" source="tCJuM1a8_pd4Xw4a-ybW-32" target="tCJuM1a8_pd4Xw4a-ybW-33">
          <mxGeometry relative="1" as="geometry" />
        </mxCell>
        <mxCell id="tCJuM1a8_pd4Xw4a-ybW-32" value="y = a % 10;" style="rounded=0;whiteSpace=wrap;html=1;" vertex="1" parent="1">
          <mxGeometry x="230" y="220" width="120" height="20" as="geometry" />
        </mxCell>
        <mxCell id="tCJuM1a8_pd4Xw4a-ybW-38" style="edgeStyle=orthogonalEdgeStyle;rounded=0;orthogonalLoop=1;jettySize=auto;html=1;entryX=0.5;entryY=0;entryDx=0;entryDy=0;" edge="1" parent="1" source="tCJuM1a8_pd4Xw4a-ybW-33" target="tCJuM1a8_pd4Xw4a-ybW-34">
          <mxGeometry relative="1" as="geometry" />
        </mxCell>
        <mxCell id="tCJuM1a8_pd4Xw4a-ybW-33" value="a = a / 10;" style="rounded=0;whiteSpace=wrap;html=1;" vertex="1" parent="1">
          <mxGeometry x="230" y="260" width="120" height="20" as="geometry" />
        </mxCell>
        <mxCell id="tCJuM1a8_pd4Xw4a-ybW-40" style="edgeStyle=orthogonalEdgeStyle;rounded=0;orthogonalLoop=1;jettySize=auto;html=1;" edge="1" parent="1" source="tCJuM1a8_pd4Xw4a-ybW-34">
          <mxGeometry relative="1" as="geometry">
            <mxPoint x="290" y="150" as="targetPoint" />
            <Array as="points">
              <mxPoint x="210" y="310" />
              <mxPoint x="210" y="150" />
            </Array>
          </mxGeometry>
        </mxCell>
        <mxCell id="tCJuM1a8_pd4Xw4a-ybW-34" value="z = z + pow(y, 2);" style="rounded=0;whiteSpace=wrap;html=1;" vertex="1" parent="1">
          <mxGeometry x="230" y="300" width="120" height="20" as="geometry" />
        </mxCell>
        <mxCell id="tCJuM1a8_pd4Xw4a-ybW-43" style="edgeStyle=orthogonalEdgeStyle;rounded=0;orthogonalLoop=1;jettySize=auto;html=1;entryX=0;entryY=0.5;entryDx=0;entryDy=0;exitX=0.5;exitY=1;exitDx=0;exitDy=0;" edge="1" parent="1" source="tCJuM1a8_pd4Xw4a-ybW-35" target="tCJuM1a8_pd4Xw4a-ybW-26">
          <mxGeometry relative="1" as="geometry">
            <Array as="points">
              <mxPoint x="290" y="370" />
              <mxPoint x="200" y="370" />
              <mxPoint x="200" y="130" />
            </Array>
          </mxGeometry>
        </mxCell>
        <mxCell id="tCJuM1a8_pd4Xw4a-ybW-35" value="a = z;" style="rounded=0;whiteSpace=wrap;html=1;" vertex="1" parent="1">
          <mxGeometry x="230" y="340" width="120" height="20" as="geometry" />
        </mxCell>
        <mxCell id="tCJuM1a8_pd4Xw4a-ybW-47" style="edgeStyle=orthogonalEdgeStyle;rounded=0;orthogonalLoop=1;jettySize=auto;html=1;entryX=0.5;entryY=0;entryDx=0;entryDy=0;" edge="1" parent="1" source="tCJuM1a8_pd4Xw4a-ybW-39" target="tCJuM1a8_pd4Xw4a-ybW-2">
          <mxGeometry relative="1" as="geometry" />
        </mxCell>
        <mxCell id="tCJuM1a8_pd4Xw4a-ybW-39" value="return z" style="rounded=0;whiteSpace=wrap;html=1;" vertex="1" parent="1">
          <mxGeometry x="230" y="400" width="120" height="20" as="geometry" />
        </mxCell>
      </root>
    </mxGraphModel>
  </diagram>
</mxfile>
